<?xml version="1.0" standalone="no"?>
<!DOCTYPE svg PUBLIC "-//W3C//DTD SVG 20010904//EN"
 "http://www.w3.org/TR/2001/REC-SVG-20010904/DTD/svg10.dtd">
<svg version="1.0" xmlns="http://www.w3.org/2000/svg"
 width="700.000000pt" height="700.000000pt" viewBox="0 0 700.000000 700.000000"
 preserveAspectRatio="xMidYMid meet">
<metadata>
Created by potrace 1.11, written by Peter Selinger 2001-2013
</metadata>
<g transform="translate(0.000000,700.000000) scale(0.100000,-0.100000)"
fill="#000000" stroke="none">
<path d="M977 3950 c-47 -9 -86 -37 -112 -81 -20 -34 -20 -54 -23 -1507 -2
-1053 1 -1485 9 -1515 29 -108 166 -158 267 -97 54 33 66 70 72 219 l5 134 33
-51 c90 -140 281 -265 492 -324 106 -29 323 -36 448 -14 498 87 872 433 990
916 63 261 50 576 -34 812 -100 279 -310 520 -567 650 -88 44 -250 95 -357
113 -137 22 -329 20 -452 -5 -224 -46 -412 -158 -514 -305 l-39 -57 -5 510
c-5 496 -6 511 -26 538 -37 51 -115 77 -187 64z m1228 -1089 c171 -46 349
-156 452 -280 70 -85 126 -200 160 -326 24 -89 26 -119 27 -270 1 -199 -16
-277 -90 -434 -58 -123 -114 -200 -218 -298 -66 -63 -106 -91 -178 -126 -159
-77 -221 -92 -383 -91 -122 1 -152 4 -230 28 -144 44 -237 98 -335 196 -95 94
-144 175 -181 300 -21 69 -23 100 -27 368 -4 332 4 401 63 528 41 90 71 134
137 203 101 104 243 179 408 216 93 21 291 14 395 -14z"/>
<path d="M4700 3215 c-195 -33 -390 -114 -535 -222 -525 -391 -639 -1195 -251
-1778 100 -151 226 -259 408 -351 420 -212 1028 -177 1373 78 118 88 165 159
151 233 -9 46 -57 101 -103 116 -65 21 -114 7 -222 -64 -111 -72 -205 -114
-326 -147 -115 -31 -358 -39 -476 -15 -318 64 -572 297 -660 605 -11 36 -19
73 -19 82 0 17 53 18 978 18 641 0 990 4 1014 10 21 6 51 22 68 36 61 52 72
100 59 263 -27 337 -134 586 -342 796 -233 235 -546 357 -912 354 -71 -1 -164
-7 -205 -14z m388 -326 c41 -6 104 -21 140 -33 332 -113 538 -373 597 -753 l7
-43 -906 0 -906 0 4 23 c3 12 10 53 16 90 45 280 214 515 455 633 182 88 371
115 593 83z"/>
</g>
</svg>
