<?xml version="1.0" encoding="utf-8"?>
<!-- Generator: Adobe Illustrator 19.2.1, SVG Export Plug-In . SVG Version: 6.00 Build 0)  -->
<svg version="1.1" id="be-bold-logo" xmlns="http://www.w3.org/2000/svg" xmlns:xlink="http://www.w3.org/1999/xlink" x="0px"
	 y="0px" viewBox="0 0 506.2 612" style="enable-background:new 0 0 506.2 612;" xml:space="preserve">
<style type="text/css">
	.st0{fill:#FFFFFF;}
</style>
<g id="lettering">
	<path class="st0" d="M97.4,610.3H56c-3.2,0-5.8-2.5-5.9-5.7V515c0.1-3.2,2.7-5.8,5.9-5.7h37.7c14.8,0,37.7,4.8,37.7,27.5
		c0.4,8.3-4.5,15.9-12.2,18.9c11.6,3.7,19.6,11.8,19.6,24.7C138.7,604,117.4,610.3,97.4,610.3z M61.8,519.5v32.4h32.4
		c13.7,0,25.6-3.7,25.6-15.3c0-13.7-16.2-17.1-26.1-17.1L61.8,519.5L61.8,519.5z M61.8,600h35.6c14,0,29.4-3.7,29.4-19.7
		c0-12.6-10.8-18-24.7-18H61.7V600H61.8z"/>
	<path class="st0" d="M156.3,558c-0.5-24.9,17.5-46.4,42.1-50.2c5.6-0.7,11.3-0.7,16.9,0c24.9,3.6,43.4,25,43.3,50.2
		c0,33-24.1,54-50.9,54C179.2,612.1,156.3,591.7,156.3,558z M168.2,558.5c0,26.1,17.1,42.6,39.6,42.6c21.5,0,39.1-15.9,39.1-42.6
		c0.6-19.8-13.6-36.9-33.1-40.1c-4.6-0.6-9.2-0.6-13.8,0c-19.3,3-31.8,18.4-31.8,40.3V558.5L168.2,558.5z"/>
	<path class="st0" d="M287.1,610.3c-2.8,0.5-5.5-1.4-6-4.3c-0.1-0.5-0.1-1.1,0-1.6v-91.2c0-3.2,2.6-5.9,5.9-5.9
		c3.2,0,5.9,2.6,5.9,5.9v86.7h59.4c2.9-0.4,5.6,1.6,6,4.5s-1.6,5.6-4.5,6c-0.5,0.1-1,0.1-1.4,0L287.1,610.3L287.1,610.3z"/>
	<path class="st0" d="M377.3,610.3c-3.9,0.1-7.1-3-7.3-6.8v-87.6c0.2-3.9,3.5-6.8,7.3-6.7h34.6c31.6,0,47.4,25.3,47.4,50.6
		s-15.7,50.6-47.4,50.6L377.3,610.3L377.3,610.3z M381.4,600h30.5c24.1,0,35.8-20.2,35.8-40.2s-11.9-40.4-35.8-40.4h-30.5V600z"/>
</g>
<g>
	<path class="st0" d="M374,278.9h0.3c-12.3-3.2-25.2-3.1-37.5,0.3c-27.6,7.2-43.9,30.5-46,58.6h130.7C419,308.3,401,285.8,374,278.9
		z"/>
	<path class="st0" d="M200.9,314.6c-10.1-24.1-34.7-37.1-59.3-37.1c-31.6,1.4-54.9,22.9-54.9,53.4v27.4c0,34,26.7,54.1,58.3,54.1
		c12.8-0.8,25.2-5.4,35.4-13.2c17.4-14.5,26.9-36.3,25.7-58.9C205.7,331.5,204,322.9,200.9,314.6z"/>
	<path class="st0" d="M0,0v467.2h506.2V0H0z M175.6,430.1l0.3-0.3c-10.6,4.3-21.9,6.6-33.3,6.6c-20.8,0-45.1-9-56.9-30.5v16.2
		c0.8,5.9-3.3,11.3-9.2,12.1c-0.9,0.1-1.7,0.1-2.6,0c-6.3,0.7-12-3.8-12.8-10.1c-0.1-0.7-0.1-1.3-0.1-2V212.5
		c0-15.9,25.3-15.9,25.3,0v69c10.4-18.4,32.9-28.1,56.2-28.1c52,0,87.4,37.1,88.8,86.3C232.4,380.1,213.4,414.3,175.6,430.1z
		 M428.6,358.9H291.8c5.1,30.8,32.3,53.1,63.5,52c16.5,0.4,32.8-4.7,46.1-14.4c12.1-11.1,30.1,3.1,16.7,17
		c-15.9,14.9-39.2,21.1-61.7,20.8c-27.1,0-54.1-10.4-70.4-30.9c-37.5-49.2-21.1-129,43.3-147c17-4.7,35-4.7,52,0h0.3l0-0.2
		c39.2,10.7,63.5,42.7,64.1,87V343C446.4,350.6,443.1,358.9,428.6,358.9z"/>
</g>
</svg>
