<?xml version="1.0" encoding="utf-8"?>
<!-- Generator: Adobe Illustrator 18.0.0, SVG Export Plug-In . SVG Version: 6.00 Build 0)  -->
<svg version="1.2" baseProfile="tiny" id="be-bold-logo"
	 xmlns="http://www.w3.org/2000/svg" xmlns:xlink="http://www.w3.org/1999/xlink" x="0px" y="0px" viewBox="143 0 506.1 611.9"
	 xml:space="preserve">
<title>be-bold</title>
<rect id="color-block" x="143" y="0" fill="#FFFFFF" width="506.1" height="467.1"/>
<g id="lettering">
	<path d="M318.6,430l0.3-0.3c-10.6,4.3-21.9,6.6-33.3,6.6c-20.8,0-45.1-9-56.9-30.5V422c0.8,5.9-3.3,11.3-9.2,12.1
		c-0.9,0.1-1.7,0.1-2.6,0c-6.3,0.7-12-3.8-12.8-10.1c-0.1-0.7-0.1-1.3-0.1-2V212.5c0-15.9,25.3-15.9,25.3,0v69
		c10.4-18.4,32.9-28.1,56.2-28.1c52,0,87.4,37.1,88.8,86.3C375.4,380,356.4,414.2,318.6,430z M323.4,399.1
		c17.4-14.5,26.9-36.3,25.7-58.9c-0.4-8.8-2.1-17.4-5.2-25.7c-10.1-24.1-34.7-37.1-59.3-37.1c-31.6,1.4-54.9,22.9-54.9,53.4v27.4
		c0,34,26.7,54.1,58.3,54.1C300.8,411.5,313.2,406.9,323.4,399.1L323.4,399.1z"/>
	<path d="M524.5,256.2c39.2,10.7,63.5,42.7,64.1,87v-0.3c0.7,7.6-2.6,15.9-17.1,15.9H434.7c5.1,30.8,32.3,53.1,63.5,52
		c16.5,0.4,32.8-4.7,46.1-14.4c12.1-11.1,30.1,3.1,16.7,17c-15.9,14.9-39.2,21.1-61.7,20.8c-27.1,0-54.1-10.4-70.4-30.9
		c-37.5-49.2-21.1-129,43.3-147c17-4.7,35-4.7,52,0h0.3L524.5,256.2L524.5,256.2z M433.7,337.7h130.7c-2.5-29.5-20.5-52-47.5-58.9
		h0.3c-12.3-3.2-25.2-3.1-37.5,0.3C452.1,286.4,435.8,309.6,433.7,337.7z"/>
	<path d="M240.4,610.2H199c-3.2,0-5.8-2.5-5.9-5.7v-89.6c0.1-3.2,2.7-5.8,5.9-5.7h37.7c14.8,0,37.7,4.8,37.7,27.5
		c0.4,8.3-4.5,15.9-12.2,18.9c11.6,3.7,19.6,11.8,19.6,24.7C281.7,603.9,260.4,610.2,240.4,610.2z M204.8,519.4v32.4h32.4
		c13.7,0,25.6-3.7,25.6-15.3c0-13.7-16.2-17.1-26.1-17.1L204.8,519.4L204.8,519.4z M204.8,599.9h35.6c14,0,29.4-3.7,29.4-19.7
		c0-12.6-10.8-18-24.7-18h-40.4v37.7H204.8z"/>
	<path d="M299.3,557.9c-0.5-24.9,17.5-46.4,42.1-50.2c5.6-0.7,11.3-0.7,16.9,0c24.9,3.6,43.4,25,43.3,50.2c0,33-24.1,54-50.9,54
		C322.2,612,299.3,591.6,299.3,557.9z M311.2,558.4c0,26.1,17.1,42.6,39.6,42.6c21.5,0,39.1-15.9,39.1-42.6
		c0.6-19.8-13.6-36.9-33.1-40.1c-4.6-0.6-9.2-0.6-13.8,0c-19.3,3-31.8,18.4-31.8,40.3L311.2,558.4L311.2,558.4z"/>
	<path d="M430,610.2c-2.8,0.5-5.5-1.4-6-4.3c-0.1-0.5-0.1-1.1,0-1.6v-91.2c0-3.2,2.6-5.9,5.9-5.9c3.2,0,5.9,2.6,5.9,5.9v86.7h59.4
		c2.9-0.4,5.6,1.6,6,4.5s-1.6,5.6-4.5,6c-0.5,0.1-1,0.1-1.4,0L430,610.2L430,610.2z"/>
	<path d="M520.2,610.2c-3.9,0.1-7.1-3-7.3-6.8v-87.6c0.2-3.9,3.5-6.8,7.3-6.7h34.6c31.6,0,47.4,25.3,47.4,50.6s-15.7,50.6-47.4,50.6
		L520.2,610.2L520.2,610.2z M524.3,599.9h30.5c24.1,0,35.8-20.2,35.8-40.2s-11.9-40.4-35.8-40.4h-30.5V599.9z"/>
</g>
</svg>
