<?xml version="1.0" encoding="utf-8"?>
<!-- Generator: Adobe Illustrator 18.0.0, SVG Export Plug-In . SVG Version: 6.00 Build 0)  -->
<!DOCTYPE svg PUBLIC "-//W3C//DTD SVG 1.1//EN" "http://www.w3.org/Graphics/SVG/1.1/DTD/svg11.dtd">
<svg version="1.1" id="be-bold-logo" xmlns="http://www.w3.org/2000/svg" xmlns:xlink="http://www.w3.org/1999/xlink" x="0px"
	 y="0px" viewBox="285.9 0 506.2 612" enable-background="new 285.9 0 506.2 612" xml:space="preserve">
<title>be-bold</title>
<rect id="color-block" x="285.9" fill="#E2DEDF" width="506.2" height="467.2"/>
<g id="lettering">
	<path d="M461.5,430.1l0.3-0.3c-10.6,4.3-21.9,6.6-33.3,6.6c-20.8,0-45.1-9-56.9-30.5v16.2c0.8,5.9-3.3,11.3-9.2,12.1
		c-0.9,0.1-1.7,0.1-2.6,0c-6.3,0.7-12-3.8-12.8-10.1c-0.1-0.7-0.1-1.3-0.1-2V212.5c0-15.9,25.3-15.9,25.3,0v69
		c10.4-18.4,32.9-28.1,56.2-28.1c52,0,87.4,37.1,88.8,86.3C518.3,380.1,499.3,414.3,461.5,430.1z M466.3,399.2
		c17.4-14.5,26.9-36.3,25.7-58.9c-0.4-8.8-2.1-17.4-5.2-25.7c-10.1-24.1-34.7-37.1-59.3-37.1c-31.6,1.4-54.9,22.9-54.9,53.4v27.4
		c0,34,26.7,54.1,58.3,54.1C443.7,411.6,456.1,407,466.3,399.2L466.3,399.2z"/>
	<path d="M667.5,256.2c39.2,10.7,63.5,42.7,64.1,87V343c0.7,7.6-2.6,15.9-17.1,15.9H577.7c5.1,30.8,32.3,53.1,63.5,52
		c16.5,0.4,32.8-4.7,46.1-14.4c12.1-11.1,30.1,3.1,16.7,17c-15.9,14.9-39.2,21.1-61.7,20.8c-27.1,0-54.1-10.4-70.4-30.9
		c-37.5-49.2-21.1-129,43.3-147c17-4.7,35-4.7,52,0h0.3L667.5,256.2L667.5,256.2z M576.7,337.8h130.7c-2.5-29.5-20.5-52-47.5-58.9
		h0.3c-12.3-3.2-25.2-3.1-37.5,0.3C595.1,286.4,578.8,309.7,576.7,337.8z"/>
	<path d="M383.3,610.3h-41.4c-3.2,0-5.8-2.5-5.9-5.7V515c0.1-3.2,2.7-5.8,5.9-5.7h37.7c14.8,0,37.7,4.8,37.7,27.5
		c0.4,8.3-4.5,15.9-12.2,18.9c11.6,3.7,19.6,11.8,19.6,24.7C424.6,604,403.3,610.3,383.3,610.3z M347.7,519.5v32.4h32.4
		c13.7,0,25.6-3.7,25.6-15.3c0-13.7-16.2-17.1-26.1-17.1L347.7,519.5L347.7,519.5z M347.7,600h35.6c14,0,29.4-3.7,29.4-19.7
		c0-12.6-10.8-18-24.7-18h-40.4V600H347.7z"/>
	<path d="M442.2,558c-0.5-24.9,17.5-46.4,42.1-50.2c5.6-0.7,11.3-0.7,16.9,0c24.9,3.6,43.4,25,43.3,50.2c0,33-24.1,54-50.9,54
		C465.1,612.1,442.2,591.7,442.2,558z M454.1,558.5c0,26.1,17.1,42.6,39.6,42.6c21.5,0,39.1-15.9,39.1-42.6
		c0.6-19.8-13.6-36.9-33.1-40.1c-4.6-0.6-9.2-0.6-13.8,0c-19.3,3-31.8,18.4-31.8,40.3V558.5L454.1,558.5z"/>
	<path d="M573,610.3c-2.8,0.5-5.5-1.4-6-4.3c-0.1-0.5-0.1-1.1,0-1.6v-91.2c0-3.2,2.6-5.9,5.9-5.9c3.2,0,5.9,2.6,5.9,5.9v86.7h59.4
		c2.9-0.4,5.6,1.6,6,4.5s-1.6,5.6-4.5,6c-0.5,0.1-1,0.1-1.4,0L573,610.3L573,610.3z"/>
	<path d="M663.2,610.3c-3.9,0.1-7.1-3-7.3-6.8v-87.6c0.2-3.9,3.5-6.8,7.3-6.7h34.6c31.6,0,47.4,25.3,47.4,50.6s-15.7,50.6-47.4,50.6
		L663.2,610.3L663.2,610.3z M667.3,600h30.5c24.1,0,35.8-20.2,35.8-40.2s-11.9-40.4-35.8-40.4h-30.5V600z"/>
</g>
</svg>
