<?xml version="1.0" encoding="utf-8"?>
<!-- Generator: Adobe Illustrator 18.0.0, SVG Export Plug-In . SVG Version: 6.00 Build 0)  -->
<!DOCTYPE svg PUBLIC "-//W3C//DTD SVG 1.1//EN" "http://www.w3.org/Graphics/SVG/1.1/DTD/svg11.dtd">
<svg version="1.1" id="be-bold-logo" xmlns="http://www.w3.org/2000/svg" xmlns:xlink="http://www.w3.org/1999/xlink" x="0px"
	 y="0px" viewBox="183.6 0 238.2 288" enable-background="new 183.6 0 238.2 288" xml:space="preserve">
<title>be-bold</title>
<rect id="color-block" x="183.6" fill="#8299CE" width="238.2" height="219.9"/>
<g id="lettering">
	<path fill="#FFFFFF" d="M266.3,202.4l0.1-0.1c-5,2-10.3,3.1-15.7,3.1c-9.8,0-21.2-4.2-26.8-14.4v7.6c0.4,2.8-1.6,5.3-4.3,5.7
		c-0.4,0-0.8,0-1.2,0c-3,0.3-5.6-1.8-6-4.8c0-0.3,0-0.6,0-0.9V100c0-7.5,11.9-7.5,11.9,0v32.5c4.9-8.7,15.5-13.2,26.4-13.2
		c24.5,0,41.1,17.5,41.8,40.6C293,178.9,284.1,195,266.3,202.4z M268.5,187.9c8.2-6.8,12.7-17.1,12.1-27.7c-0.2-4.1-1-8.2-2.4-12.1
		c-4.8-11.3-16.3-17.5-27.9-17.5c-14.9,0.7-25.8,10.8-25.8,25.1v12.9c0,16,12.6,25.5,27.4,25.5C257.9,193.7,263.7,191.5,268.5,187.9
		L268.5,187.9z"/>
	<path fill="#FFFFFF" d="M363.2,121.6c18.4,5,29.9,20.1,30.2,40.9v-0.1c0.3,3.6-1.2,7.5-8,7.5H321c2.4,14.5,15.2,25,29.9,24.5
		c7.8,0.2,15.4-2.2,21.7-6.8c5.7-5.2,14.2,1.5,7.9,8c-7.5,7-18.4,9.9-29,9.8c-12.8,0-25.5-4.9-33.1-14.5
		c-17.6-23.2-9.9-60.7,20.4-69.2C346.8,119.5,355.3,119.5,363.2,121.6L363.2,121.6L363.2,121.6L363.2,121.6z M320.5,160H382
		c-1.2-13.9-9.6-24.5-22.4-27.7h0.1c-5.8-1.5-11.9-1.5-17.6,0.1C329.1,135.8,321.5,146.7,320.5,160z"/>
	<path fill="#8C8C8C" d="M229.5,287.2H210c-1.5,0-2.7-1.2-2.8-2.7v-42.2c0-1.5,1.3-2.7,2.8-2.7h17.7c7,0,17.7,2.3,17.7,12.9
		c0.2,3.9-2.1,7.5-5.7,8.9c5.5,1.7,9.2,5.6,9.2,11.6C248.9,284.2,238.9,287.2,229.5,287.2z M212.7,244.5v15.2h15.2
		c6.4,0,12-1.7,12-7.2c0-6.4-7.6-8-12.3-8L212.7,244.5L212.7,244.5z M212.7,282.4h16.8c6.6,0,13.8-1.7,13.8-9.3
		c0-5.9-5.1-8.5-11.6-8.5h-19V282.4L212.7,282.4z"/>
	<path fill="#8C8C8C" d="M257.2,262.6c-0.2-11.7,8.2-21.8,19.8-23.6c2.6-0.3,5.3-0.3,8,0c11.7,1.7,20.4,11.8,20.4,23.6
		c0,15.5-11.3,25.4-24,25.4C268,288,257.2,278.4,257.2,262.6z M262.8,262.8c0,12.3,8,20,18.6,20c10.1,0,18.4-7.5,18.4-20
		c0.3-9.3-6.4-17.4-15.6-18.9c-2.2-0.3-4.3-0.3-6.5,0C268.7,245.4,262.8,252.6,262.8,262.8L262.8,262.8L262.8,262.8z"/>
	<path fill="#8C8C8C" d="M318.7,287.2c-1.3,0.2-2.6-0.7-2.8-2c0-0.2,0-0.5,0-0.8v-42.9c0-1.5,1.2-2.8,2.8-2.8c1.5,0,2.8,1.2,2.8,2.8
		v40.8h28c1.4-0.2,2.6,0.8,2.8,2.1s-0.8,2.6-2.1,2.8c-0.2,0-0.5,0-0.7,0H318.7L318.7,287.2z"/>
	<path fill="#8C8C8C" d="M361.2,287.2c-1.8,0-3.3-1.4-3.4-3.2v-41.2c0.1-1.8,1.6-3.2,3.4-3.2h16.3c14.9,0,22.3,11.9,22.3,23.8
		s-7.4,23.8-22.3,23.8L361.2,287.2L361.2,287.2z M363.1,282.4h14.4c11.3,0,16.8-9.5,16.8-18.9s-5.6-19-16.8-19h-14.4V282.4z"/>
</g>
</svg>
