<?xml version="1.0" encoding="utf-8"?>
<!-- Generator: Adobe Illustrator 18.0.0, SVG Export Plug-In . SVG Version: 6.00 Build 0)  -->
<!DOCTYPE svg PUBLIC "-//W3C//DTD SVG 1.1//EN" "http://www.w3.org/Graphics/SVG/1.1/DTD/svg11.dtd">
<svg version="1.1" id="Layer_1" xmlns="http://www.w3.org/2000/svg" xmlns:xlink="http://www.w3.org/1999/xlink" x="0px" y="0px"
	 viewBox="0 0 300.8 336.1" enable-background="new 0 0 300.8 336.1" xml:space="preserve">
<path fill="#FFFFFF" d="M61.1,257.7c-22-67.7,36.2-113.3,74-152.6c17.4-18.1,25.1-39.5,28.3-57.4c-15.1-16-33.3-32-54.7-47.7
	c0,0,7.9,55.1-29.9,94.4c-37.8,39.3-96,85-74,152.6c12.4,38.2,44.4,65.9,81.6,75.1c11.3,2.8,23.1,3.9,35,3
	C93.7,312.2,71.1,288.3,61.1,257.7z"/>
<path fill="#FAFAFA" d="M180.1,10.6c0,0,2.3,16.1-1.6,37.1c-3.3,17.9-11,39.3-28.3,57.4c-37.8,39.3-96,85-74,152.6
	c10,30.7,32.6,54.5,60.3,67.5c6.8,3.2,13.9,5.8,21.3,7.6c28.6,7.1,60.3,3.2,88.4-15.3C310.7,275,348.5,133.3,180.1,10.6z"/>
</svg>
