<?xml version="1.0" encoding="utf-8"?>
<!-- Generator: Adobe Illustrator 18.0.0, SVG Export Plug-In . SVG Version: 6.00 Build 0)  -->
<!DOCTYPE svg PUBLIC "-//W3C//DTD SVG 1.1//EN" "http://www.w3.org/Graphics/SVG/1.1/DTD/svg11.dtd">
<svg version="1.1" id="Layer_1" xmlns="http://www.w3.org/2000/svg" xmlns:xlink="http://www.w3.org/1999/xlink" x="0px" y="0px"
	 viewBox="0 0 394.2 341.5" enable-background="new 0 0 394.2 341.5" xml:space="preserve">
<g>
	<path fill="#FFFFFF" d="M394.2,106.4C394.2,47.7,346.5,0,287.7,0c-38.4,0-71.9,20.4-90.6,50.9C178.4,20.4,144.8,0,106.4,0
		C47.6,0,0,47.7,0,106.4c0,32,14.2,60.6,36.5,80.1l150.8,150.8c2.6,2.6,6.1,4,9.7,4c3.6,0,7.1-1.4,9.7-4l150.8-150.8
		C380,167.1,394.2,138.5,394.2,106.4L394.2,106.4z M394.2,106.4"/>
</g>
</svg>
