<?xml version="1.0" standalone="no"?>
<!DOCTYPE svg PUBLIC "-//W3C//DTD SVG 20010904//EN"
 "http://www.w3.org/TR/2001/REC-SVG-20010904/DTD/svg10.dtd">
<svg version="1.0" xmlns="http://www.w3.org/2000/svg"
 width="512.000000pt" height="512.000000pt" viewBox="0 0 512.000000 512.000000"
 preserveAspectRatio="xMidYMid meet">
<metadata>
Created by potrace 1.11, written by Peter Selinger 2001-2013
</metadata>
<g transform="translate(0.000000,512.000000) scale(0.100000,-0.100000)"
fill="#000000" stroke="none">
<path d="M2380 4596 l-155 -93 -3 -229 -3 -229 -138 -72 c-77 -40 -144 -73
-150 -73 -8 0 -11 65 -11 215 0 118 -3 215 -7 215 -3 0 -89 -46 -189 -102
l-184 -103 0 -220 0 -220 -165 -83 -165 -82 0 195 c0 150 -3 195 -12 194 -7 0
-80 -39 -163 -87 l-150 -87 -3 -297 c-1 -164 1 -298 5 -298 5 0 382 177 838
394 l830 393 3 381 c2 303 0 382 -10 381 -7 -1 -83 -43 -168 -93z"/>
<path d="M2580 4308 l1 -383 821 -390 c451 -214 825 -391 829 -393 5 -2 9 131
9 295 l0 299 -157 92 -158 92 -3 -200 -2 -200 -160 80 -160 80 -2 221 -3 221
-180 100 c-99 55 -186 102 -192 105 -10 4 -13 -42 -13 -211 0 -150 -3 -216
-11 -216 -6 0 -73 33 -150 73 l-139 72 0 227 0 227 -159 95 c-87 53 -162 96
-165 96 -3 0 -6 -172 -6 -382z"/>
<path d="M3056 4199 c-65 -77 -117 -141 -115 -143 2 -2 57 -31 122 -65 l117
-62 0 205 c0 113 -1 206 -2 205 -2 0 -56 -63 -122 -140z"/>
<path d="M1950 4132 l0 -203 119 63 118 63 -101 118 c-55 65 -109 129 -118
140 -17 21 -18 13 -18 -181z"/>
<path d="M1230 3746 c0 -102 2 -186 5 -186 6 0 247 120 254 126 2 2 -32 36
-75 76 -43 40 -103 95 -131 122 l-53 49 0 -187z"/>
<path d="M3770 3812 c-69 -63 -126 -118 -128 -121 -3 -7 248 -134 254 -128 3
2 3 85 2 184 l-3 181 -125 -116z"/>
<path d="M1725 3510 c-451 -214 -828 -394 -838 -400 -17 -10 -24 -65 -9 -73 4
-2 383 174 842 392 l835 396 3 38 c2 20 0 37 -5 36 -4 0 -377 -175 -828 -389z"/>
<path d="M2580 3863 l0 -38 821 -390 c452 -214 825 -391 830 -393 5 -2 9 14 9
35 l-1 38 -821 390 c-451 215 -825 392 -829 393 -5 2 -9 -14 -9 -35z"/>
<path d="M1713 3403 l-833 -396 0 -476 c0 -262 -3 -540 -7 -618 l-6 -143 611
0 612 0 0 325 0 324 33 9 c17 5 123 35 235 67 l202 58 0 623 c0 343 -3 624 -7
623 -5 0 -383 -179 -840 -396z"/>
<path d="M2580 3176 l0 -623 173 -51 c94 -28 198 -58 230 -67 l57 -16 0 -325
0 -324 600 0 600 0 -2 622 -3 622 -815 388 c-448 213 -821 390 -827 393 -10 3
-13 -124 -13 -619z"/>
<path d="M2333 2466 l-213 -61 0 -317 0 -318 220 0 220 0 0 380 c0 209 -3 380
-7 379 -5 -1 -104 -29 -220 -63z"/>
<path d="M2580 2151 l0 -381 215 0 215 0 0 318 0 317 -203 59 c-111 32 -208
61 -214 63 -10 4 -13 -76 -13 -376z"/>
<path d="M2351 1357 c-19 -7 -44 -25 -55 -40 -20 -27 -21 -43 -24 -253 -3
-187 0 -229 13 -257 22 -46 62 -67 130 -67 104 0 145 47 145 164 l0 66 -45 0
-45 0 0 -60 c0 -52 -3 -62 -24 -75 -17 -12 -30 -13 -49 -6 -34 13 -40 54 -35
258 3 171 9 193 54 193 37 0 54 -26 54 -81 l0 -49 45 0 45 0 0 63 c0 45 -6 71
-20 95 -34 56 -112 76 -189 49z"/>
<path d="M3075 1356 c-43 -19 -62 -45 -74 -99 -20 -85 17 -172 100 -238 50
-40 81 -91 81 -136 0 -37 -21 -63 -49 -63 -25 0 -53 39 -53 75 0 35 0 35 -45
35 l-45 0 0 -40 c0 -53 21 -101 55 -128 21 -17 41 -22 87 -22 102 0 148 46
148 149 0 72 -21 114 -89 180 -96 93 -124 157 -83 194 37 34 82 9 82 -44 0
-28 2 -29 45 -29 l45 0 0 38 c0 107 -105 172 -205 128z"/>
<path d="M870 1050 l0 -310 45 0 45 0 0 218 c0 119 4 210 9 202 4 -8 32 -106
62 -218 l54 -203 50 3 50 3 3 308 2 307 -45 0 -45 0 -2 -177 -3 -178 -39 145
c-22 80 -43 160 -48 178 -9 32 -9 32 -73 32 l-65 0 0 -310z"/>
<path d="M1270 1050 l0 -310 135 0 135 0 0 45 0 45 -85 0 -85 0 0 95 0 95 65
0 65 0 0 40 0 40 -65 0 -65 0 0 85 0 84 83 3 82 3 3 43 3 42 -135 0 -136 0 0
-310z"/>
<path d="M1590 1348 c0 -7 14 -147 32 -310 l32 -298 68 0 c37 0 68 2 68 5 0
25 32 291 36 294 2 2 4 -2 4 -10 0 -8 7 -70 15 -139 8 -69 15 -131 15 -137 0
-9 20 -13 65 -13 l64 0 5 33 c5 26 66 570 66 583 0 2 -19 4 -43 4 l-43 0 -18
-187 c-10 -104 -22 -208 -25 -233 l-7 -45 -6 45 c-4 25 -14 129 -24 233 l-18
187 -47 0 -46 0 -6 -42 c-3 -24 -13 -127 -23 -231 -9 -103 -19 -185 -21 -183
-2 2 -13 86 -23 187 -11 101 -22 203 -25 227 l-6 42 -45 0 c-28 0 -44 -4 -44
-12z"/>
<path d="M2657 1063 c-26 -164 -47 -304 -47 -310 0 -9 15 -13 44 -13 l43 0 6
50 c3 28 9 55 12 60 3 6 31 10 60 10 60 0 56 5 70 -82 6 -38 6 -38 55 -38 49
0 49 1 45 28 -8 41 -95 583 -95 588 0 2 -33 4 -73 4 l-73 0 -47 -297z m157
-85 l6 -38 -45 0 c-36 0 -45 3 -45 18 0 25 31 245 38 262 4 13 17 -52 46 -242z"/>
<path d="M3326 1318 l1 -43 52 -3 51 -3 0 -265 0 -264 50 0 51 0 -3 265 -3
264 50 3 50 3 3 43 3 42 -153 0 -153 0 1 -42z"/>
<path d="M3680 1050 l0 -310 130 0 130 0 0 45 0 45 -80 0 -80 0 0 265 0 265
-50 0 -50 0 0 -310z"/>
<path d="M4000 1050 l0 -310 135 0 135 0 0 45 0 45 -85 0 -85 0 0 85 c0 47 -1
88 -2 93 -2 4 27 8 65 10 l67 3 0 39 0 39 -66 3 -66 3 -1 82 -2 82 85 3 85 3
3 43 3 42 -135 0 -136 0 0 -310z"/>
<path d="M4173 578 c-40 -10 -67 -56 -58 -98 11 -50 60 -77 121 -65 33 6 35 8
32 43 -3 32 -7 37 -30 40 -16 2 -28 -1 -28 -7 0 -6 7 -11 16 -11 10 0 14 -7
12 -22 -4 -32 -50 -36 -77 -9 -49 49 -13 116 59 109 23 -2 39 1 37 6 -5 16
-50 23 -84 14z"/>
<path d="M880 495 l0 -85 51 0 c36 0 49 4 46 13 -2 6 -19 12 -38 12 l-34 1 -3
72 c-4 101 -22 90 -22 -13z"/>
<path d="M1530 495 c0 -50 4 -85 10 -85 6 0 10 35 10 85 0 50 -4 85 -10 85 -6
0 -10 -35 -10 -85z"/>
<path d="M2139 496 c20 -46 39 -81 43 -78 3 4 18 36 33 72 15 36 29 71 32 78
3 6 0 12 -6 12 -7 0 -24 -26 -38 -57 l-25 -58 -25 58 c-14 31 -31 57 -38 57
-9 0 -1 -28 24 -84z"/>
<path d="M2802 498 c4 -106 22 -105 26 2 2 67 0 80 -13 80 -13 0 -15 -13 -13
-82z"/>
<path d="M3397 500 c2 -95 17 -111 21 -22 l3 62 56 -65 c30 -36 59 -65 64 -65
5 0 9 38 9 85 0 50 -4 85 -10 85 -6 0 -10 -28 -10 -62 l-1 -63 -57 63 c-31 34
-61 62 -67 62 -6 0 -9 -32 -8 -80z"/>
</g>
</svg>
